<svg xmlns="http://www.w3.org/2000/svg" viewBox="0 0 100 125" x="0px" y="0px"><title>Artboard 57 copy</title><g data-name="Layer 2"><path d="M48.23,49.51H24.36a2,2,0,0,1,0-4H48.23a2,2,0,0,1,0,4Z"/><path d="M73.11,28.77H24.36a2,2,0,0,1,0-4H73.11a2,2,0,0,1,0,4Z"/><path d="M73.11,70.24H24.36a2,2,0,0,1,0-4H73.11a2,2,0,0,1,0,4Z"/></g><text x="0" y="115" fill="#000000" font-size="5px" font-weight="bold" font-family="'Helvetica Neue', Helvetica, Arial-Unicode, Arial, Sans-serif">Created by Florent B</text><text x="0" y="120" fill="#000000" font-size="5px" font-weight="bold" font-family="'Helvetica Neue', Helvetica, Arial-Unicode, Arial, Sans-serif">from the Noun Project</text></svg>